ffmpeg version 3.4.8-0ubuntu0.2 Copyright (c) 2000-2020 the FFmpeg developers
  built with gcc 7 (Ubuntu 7.5.0-3ubuntu1~18.04)
  configuration: --prefix=/usr --extra-version=0ubuntu0.2 --toolchain=hardened --libdir=/usr/lib/x86_64-linux-gnu --incdir=/usr/include/x86_64-linux-gnu --enable-gpl --disable-stripping --enable-avresample --enable-avisynth --enable-gnutls --enable-ladspa --enable-libass --enable-libbluray --enable-libbs2b --enable-libcaca --enable-libcdio --enable-libflite --enable-libfontconfig --enable-libfreetype --enable-libfribidi --enable-libgme --enable-libgsm --enable-libmp3lame --enable-libmysofa --enable-libopenjpeg --enable-libopenmpt --enable-libopus --enable-libpulse --enable-librubberband --enable-librsvg --enable-libshine --enable-libsnappy --enable-libsoxr --enable-libspeex --enable-libssh --enable-libtheora --enable-libtwolame --enable-libvorbis --enable-libvpx --enable-libwavpack --enable-libwebp --enable-libx265 --enable-libxml2 --enable-libxvid --enable-libzmq --enable-libzvbi --enable-omx --enable-openal --enable-opengl --enable-sdl2 --enable-libdc1394 --enable-libdrm --enable-libiec61883 --enable-chromaprint --enable-frei0r --enable-libopencv --enable-libx264 --enable-shared
  libavutil      55. 78.100 / 55. 78.100
  libavcodec     57.107.100 / 57.107.100
  libavformat    57. 83.100 / 57. 83.100
  libavdevice    57. 10.100 / 57. 10.100
  libavfilter     6.107.100 /  6.107.100
  libavresample   3.  7.  0 /  3.  7.  0
  libswscale      4.  8.100 /  4.  8.100
  libswresample   2.  9.100 /  2.  9.100
  libpostproc    54.  7.100 / 54.  7.100
[rawvideo @ 0x55bd8d806a20] Estimating duration from bitrate, this may be inaccurate
Input #0, rawvideo, from '../../SVC-Encoder-20220109T061506Z-001/SVC-Encoder/Dataset/RollerCoaster/ERP_8x8/tile_yuv/Tile_39_480x240.yuv':
  Duration: 00:00:10.00, start: 0.000000, bitrate: 41472 kb/s
    Stream #0:0: Video: rawvideo (I420 / 0x30323449), yuv420p, 480x240, 41472 kb/s, 30 tbr, 30 tbn, 30 tbc
Stream mapping:
  Stream #0:0 -> #0:0 (rawvideo (native) -> h264 (libx264))
Press [q] to stop, [?] for help
[libx264 @ 0x55bd8d813c60] using cpu capabilities: MMX2 SSE2Fast LZCNT SSSE3 SSE4.2 AVX
[libx264 @ 0x55bd8d813c60] profile High, level 2.1
Output #0, rawvideo, to 'RollerCoaster_Tile_39_480x240_x264_QP_32.h264':
  Metadata:
    encoder         : Lavf57.83.100
    Stream #0:0: Video: h264 (libx264), yuv420p, 480x240, q=-1--1, 30 fps, 30 tbn, 30 tbc
    Metadata:
      encoder         : Lavc57.107.100 libx264
    Side data:
      cpb: bitrate max/min/avg: 0/0/0 buffer size: 0 vbv_delay: -1
frame=  141 fps=0.0 q=38.0 PSNR=Y:nan U:nan V:nan *:nan size=      74kB time=00:00:03.26 bitrate= 186.8kbits/s speed=6.52x    frame=  284 fps=283 q=38.0 PSNR=Y:nan U:nan V:nan *:nan size=     166kB time=00:00:08.03 bitrate= 168.8kbits/s speed=   8x    frame=  300 fps=252 q=38.0 LPSNR=Y:inf U:inf V:inf *:inf size=     204kB time=00:00:09.93 bitrate= 168.1kbits/s speed=8.34x    
video:204kB audio:0kB subtitle:0kB other streams:0kB global headers:0kB muxing overhead: 0.000000%
[libx264 @ 0x55bd8d813c60] frame I:2     Avg QP:29.87  size: 10566  PSNR Mean Y:36.73 U:43.23 V:43.98 Avg:38.06 Global:38.03
[libx264 @ 0x55bd8d813c60] frame P:76    Avg QP:32.18  size:  1656  PSNR Mean Y:34.94 U:43.44 V:44.11 Avg:36.42 Global:36.39
[libx264 @ 0x55bd8d813c60] frame B:222   Avg QP:37.49  size:   278  PSNR Mean Y:34.58 U:43.27 V:43.86 Avg:36.07 Global:36.05
[libx264 @ 0x55bd8d813c60] consecutive B-frames:  1.3%  0.0%  0.0% 98.7%
[libx264 @ 0x55bd8d813c60] mb I  I16..4:  8.9% 73.7% 17.4%
[libx264 @ 0x55bd8d813c60] mb P  I16..4:  0.5%  1.9%  0.4%  P16..4: 45.3% 15.7%  5.2%  0.0%  0.0%    skip:31.1%
[libx264 @ 0x55bd8d813c60] mb B  I16..4:  0.0%  0.1%  0.0%  B16..8: 34.4%  2.7%  0.2%  direct: 0.2%  skip:62.3%  L0:38.4% L1:58.5% BI: 3.1%
[libx264 @ 0x55bd8d813c60] 8x8 transform intra:71.7% inter:69.3%
[libx264 @ 0x55bd8d813c60] coded y,uvDC,uvAC intra: 71.8% 72.3% 25.3% inter: 5.8% 4.2% 0.0%
[libx264 @ 0x55bd8d813c60] i16 v,h,dc,p: 27% 14% 31% 29%
[libx264 @ 0x55bd8d813c60] i8 v,h,dc,ddl,ddr,vr,hd,vl,hu: 18% 10% 16%  5%  7% 15%  6%  8% 14%
[libx264 @ 0x55bd8d813c60] i4 v,h,dc,ddl,ddr,vr,hd,vl,hu: 25% 10% 22%  6%  7% 10%  6%  6%  9%
[libx264 @ 0x55bd8d813c60] i8c dc,h,v,p: 52% 13% 22% 13%
[libx264 @ 0x55bd8d813c60] Weighted P-Frames: Y:0.0% UV:0.0%
[libx264 @ 0x55bd8d813c60] ref P L0: 61.3% 19.0% 15.8%  3.9%
[libx264 @ 0x55bd8d813c60] ref B L0: 90.3%  8.5%  1.2%
[libx264 @ 0x55bd8d813c60] ref B L1: 90.5%  9.5%
[libx264 @ 0x55bd8d813c60] PSNR Mean Y:34.684 U:43.313 V:43.923 Avg:36.174 Global:36.147 kb/s:166.94
